<?xml version="1.0" encoding="utf-8"?>
<svg viewBox="18.627 8.197 160.178 242.399" xmlns="http://www.w3.org/2000/svg">
  <g id="svg_3" data-uid="o_elh0e5khe_8" transform="matrix(2.75904, 0, 0, 2.75904, 127.960207, 66.621855)" fill="#feb93f" style="opacity: 0.4;">
    <path id="svg_4" data-uid="o_elh0e5khe_9" fill="#feb93f" d="m18.10462,25.40748l-8.848,-6.113c-0.254,-0.175 -0.586,-0.178 -0.842,-0.007l-9.082,6.042l-6,-16.914l-13.04,-29.147c-0.146,-0.322 -0.496,-0.503 -0.841,-0.427c-0.347,0.074 -0.594,0.38 -0.594,0.733l0,15.288l-11.331,-10.546c-0.24,-0.224 -0.596,-0.267 -0.882,-0.103c-0.285,0.162 -0.432,0.49 -0.361,0.811l9.834,45.249c0.003,0.015 0.012,0.026 0.016,0.04c0.007,0.026 0.018,0.051 0.028,0.077c0.025,0.063 0.058,0.121 0.099,0.175c0.01,0.013 0.013,0.028 0.023,0.041l12.09,13.921l-27.591,14.079c-0.298,0.152 -0.46,0.483 -0.396,0.812c0.064,0.328 0.339,0.574 0.673,0.603l14.078,1.201c0.001,0 0.001,0 0.002,0l15.195,1.28l3.506,3.928c0.145,0.16 0.35,0.25 0.561,0.25c0.047,0 0.096,-0.005 0.145,-0.015c0.26,-0.051 0.475,-0.235 0.562,-0.485l2.979,-8.435l16.107,-10.763c0.018,-0.012 0.025,-0.029 0.043,-0.042c0.01,-0.009 0.025,-0.01 0.035,-0.019c0.018,-0.017 0.023,-0.041 0.041,-0.059c0.053,-0.057 0.096,-0.116 0.129,-0.185c0.016,-0.033 0.029,-0.065 0.041,-0.102c0.023,-0.076 0.031,-0.153 0.031,-0.234c0,-0.023 0.012,-0.045 0.008,-0.068l-1,-8.914l-1.176,-10.455l5.35,-0.132c0.324,-0.008 0.607,-0.225 0.701,-0.535c0.092,-0.309 -0.026,-0.645 -0.293,-0.83zm-6.037,12.432l0.846,7.534l-7.092,-1.754l-5.293,-14.923l11.539,9.143zm-20.42,-29.025l-14.417,19.522l-8.974,-41.291l23.391,21.769zm-1.888,36.69l12.33,-0.399l-27.047,14.604l-11.241,-0.959l25.958,-13.246zm4.357,18.981l-2.285,-2.56l4.174,-2.789l-1.889,5.349zm7.406,-38.812l7.301,-4.855l6.533,4.514l-13.834,0.341z"/>
  </g>
</svg>