<?xml version="1.0" standalone="no"?>
<!DOCTYPE svg PUBLIC "-//W3C//DTD SVG 20010904//EN"
 "http://www.w3.org/TR/2001/REC-SVG-20010904/DTD/svg10.dtd">
<svg version="1.0" xmlns="http://www.w3.org/2000/svg"
 width="246.000000pt" height="246.000000pt" viewBox="0 0 246.000000 246.000000"
 preserveAspectRatio="xMidYMid meet">
<metadata>
Created by potrace 1.14, written by Peter Selinger 2001-2017
</metadata>
<g transform="translate(0.000000,246.000000) scale(0.100000,-0.100000)"
fill="#000000" stroke="none">
<path d="M943 2432 c-9 -6 -13 -67 -15 -221 l-3 -213 -95 88 c-52 49 -121 115
-155 146 -59 57 -78 67 -89 49 -4 -5 19 -123 50 -263 31 -139 58 -264 61 -278
2 -14 13 -63 23 -110 10 -47 22 -100 25 -119 3 -19 8 -37 10 -41 2 -3 6 -18 9
-33 2 -14 24 -115 47 -225 38 -178 45 -203 73 -234 17 -19 56 -64 86 -99 83
-96 122 -140 152 -174 55 -62 68 -78 66 -80 -6 -5 -287 -149 -517 -266 -220
-112 -264 -139 -249 -155 6 -5 43 -10 153 -19 44 -3 98 -8 120 -10 49 -6 125
-12 230 -20 44 -4 98 -8 120 -10 22 -2 76 -6 120 -10 l80 -7 54 -59 c29 -33
58 -58 64 -56 6 2 29 57 52 123 l41 119 228 154 228 153 -7 77 c-3 42 -8 87
-10 101 -1 14 -6 54 -10 90 -3 36 -8 76 -10 90 -2 14 -7 54 -10 90 -4 36 -9
73 -10 83 -3 15 5 17 58 17 76 0 109 8 105 26 -2 8 -61 54 -132 103 l-128 90
-129 -86 c-71 -48 -132 -84 -135 -81 -4 5 -40 102 -129 358 -33 92 -388 897
-403 912 -4 4 -13 4 -19 0z m-132 -383 c66 -63 136 -127 153 -144 18 -16 86
-79 151 -140 64 -60 129 -119 143 -131 l25 -22 -54 -74 c-264 -358 -349 -469
-350 -457 -1 20 -7 53 -24 126 -8 35 -17 75 -20 91 -6 32 -1 11 -60 277 -26
116 -49 221 -51 235 -3 14 -23 106 -45 204 -21 99 -39 181 -39 183 0 8 52 -37
171 -148z m1034 -832 c39 -27 74 -53 78 -57 5 -4 -49 -9 -120 -10 -70 -1 -154
-3 -185 -4 -32 -1 -55 0 -53 3 24 23 192 127 200 123 6 -3 42 -28 80 -55z
m-219 -234 c179 -142 218 -176 221 -192 1 -9 5 -40 8 -70 3 -30 8 -70 11 -89
5 -30 3 -33 -14 -27 -11 3 -29 7 -39 9 -35 7 -135 35 -139 38 -2 2 -28 74 -58
159 -30 85 -61 173 -70 197 -8 23 -13 42 -10 42 3 0 43 -30 90 -67z m-72 -384
c-3 -5 -9 -9 -13 -9 -5 0 -84 -42 -178 -93 -93 -51 -189 -104 -213 -116 -25
-13 -65 -34 -90 -48 -129 -71 -247 -132 -251 -129 -2 2 -40 7 -84 10 -93 7
-199 18 -202 20 -1 1 156 83 350 181 l352 180 90 5 c159 9 245 9 239 -1z
m-172 -435 c-10 -27 -22 -58 -26 -69 -6 -18 -9 -17 -38 13 -16 18 -28 36 -24
39 12 12 101 71 104 68 1 -1 -6 -24 -16 -51z"/>
</g>
</svg>
