<svg width="180" height="325" xmlns="http://www.w3.org/2000/svg">

 <g>
  <title>Layer 1</title>
  <path id="svg_1" d="m7.22995,322.46591l-5.49436,0l0,-48.07562l8.5277,0q5.07942,0 7.89814,3.23366q2.80441,3.21935 2.80441,11.60397l0,0l0,0.3434q0,10.43069 -5.07942,13.24941l0,0l5.70898,19.64518l-5.63744,0l-5.35127,-18.40037l-3.37674,0l0,18.40037zm8.31308,-32.2078l0,0l0,-2.06038q0,-5.29404 -1.40221,-7.35442q-1.41651,-2.06038 -3.87753,-2.06038l0,0l-3.03334,0l0,20.94723l3.03334,0q5.27973,0 5.27973,-9.47204zm39.48782,22.59268q-0.47217,5.98084 -2.80441,8.31308q-2.34655,2.33224 -6.76779,2.33224q-4.43555,0 -7.01103,-3.11919q-2.57548,-3.1335 -2.57548,-11.30349l0,0l0,-10.30192q0,-8.16999 2.57548,-11.30349q2.57548,-3.11919 7.25427,-3.11919q4.66448,0 7.06826,3.09058q2.40378,3.09058 2.40378,11.33211l0,0l0,7.35442l-14.07929,0l0,3.90614q0,9.20018 4.39262,9.20018l0,0q2.13192,0 3.3052,-1.50236q1.15897,-1.51667 1.64545,-5.63744l0,0l4.59294,0.75834zm-13.93621,-15.03794l0,0l0,3.90614l8.78525,0l0,-3.90614q0,-9.20018 -4.32108,-9.20018l0,0q-4.46416,0 -4.46416,9.20018zm27.13124,-12.43384l5.35127,0l5.29404,28.77383l5.35127,-28.77383l5.29404,0l-7.76936,37.0869l-5.69467,0l-7.8266,-37.0869zm40.58669,37.0869l-5.29404,0l0,-37.0869l5.29404,0l0,37.0869zm0.20032,-44.36979l-5.69467,0l0,-6.45301l5.69467,0l0,6.45301zm34.54576,33.58139q-0.54371,6.66763 -2.94749,9.24311q-2.40378,2.57548 -6.55316,2.57548q-4.16369,0 -6.56747,-2.91888q-2.40378,-2.91888 -2.40378,-10.13022l0,0l0,-11.67551q0,-8.16999 2.40378,-11.30349q2.40378,-3.11919 6.56747,-3.11919q4.14938,0 6.48162,2.2607q2.33224,2.27501 2.81872,8.1843l0,0l-4.80756,1.30205q-0.27186,-7.4832 -4.19231,-7.4832l0,0q-1.98884,0 -3.01903,1.77422q-1.03019,1.78853 -1.03019,7.42597l0,0l0,13.12064q0,4.80756 1.05881,6.52455q1.07312,1.71699 3.06196,1.71699q1.98884,0 3.09058,-1.68837q1.10173,-1.68837 1.5739,-6.49593l0,0l4.46416,0.68679zm33.03482,1.17327q-0.47217,5.98084 -2.80441,8.31308q-2.34655,2.33224 -6.76779,2.33224q-4.43555,0 -7.01103,-3.11919q-2.57548,-3.1335 -2.57548,-11.30349l0,0l0,-10.30192q0,-8.16999 2.57548,-11.30349q2.57548,-3.11919 7.25427,-3.11919q4.66448,0 7.06826,3.09058q2.40378,3.09058 2.40378,11.33211l0,0l0,7.35442l-14.07929,0l0,3.90614q0,9.20018 4.39262,9.20018l0,0q2.13192,0 3.3052,-1.50236q1.15897,-1.51667 1.64545,-5.63744l0,0l4.59294,0.75834zm-13.93621,-15.03794l0,0l0,3.90614l8.78525,0l0,-3.90614q0,-9.20018 -4.32108,-9.20018l0,0q-4.46416,0 -4.46416,9.20018z" data-uid="o_elh0e5khe_6" name="Revice" letter-spacing="6" font-style="normal" font-weight="400" font-family="Pathway Gothic One" font-size="48" font-scale="contain" offset="0.5" text-anchor="middle" space="preserve" fill="#feb93f" text="Revice"/>
  <g id="svg_3" data-uid="o_elh0e5khe_8" transform="matrix(2.75904 0 0 2.75904 118.244 60.7132)" fill="#feb93f">
   <path id="svg_4" data-uid="o_elh0e5khe_9" fill="#feb93f" d="m18.10462,25.40748l-8.848,-6.113c-0.254,-0.175 -0.586,-0.178 -0.842,-0.007l-9.082,6.042l-6,-16.914l-13.04,-29.147c-0.146,-0.322 -0.496,-0.503 -0.841,-0.427c-0.347,0.074 -0.594,0.38 -0.594,0.733l0,15.288l-11.331,-10.546c-0.24,-0.224 -0.596,-0.267 -0.882,-0.103c-0.285,0.162 -0.432,0.49 -0.361,0.811l9.834,45.249c0.003,0.015 0.012,0.026 0.016,0.04c0.007,0.026 0.018,0.051 0.028,0.077c0.025,0.063 0.058,0.121 0.099,0.175c0.01,0.013 0.013,0.028 0.023,0.041l12.09,13.921l-27.591,14.079c-0.298,0.152 -0.46,0.483 -0.396,0.812c0.064,0.328 0.339,0.574 0.673,0.603l14.078,1.201c0.001,0 0.001,0 0.002,0l15.195,1.28l3.506,3.928c0.145,0.16 0.35,0.25 0.561,0.25c0.047,0 0.096,-0.005 0.145,-0.015c0.26,-0.051 0.475,-0.235 0.562,-0.485l2.979,-8.435l16.107,-10.763c0.018,-0.012 0.025,-0.029 0.043,-0.042c0.01,-0.009 0.025,-0.01 0.035,-0.019c0.018,-0.017 0.023,-0.041 0.041,-0.059c0.053,-0.057 0.096,-0.116 0.129,-0.185c0.016,-0.033 0.029,-0.065 0.041,-0.102c0.023,-0.076 0.031,-0.153 0.031,-0.234c0,-0.023 0.012,-0.045 0.008,-0.068l-1,-8.914l-1.176,-10.455l5.35,-0.132c0.324,-0.008 0.607,-0.225 0.701,-0.535c0.092,-0.309 -0.026,-0.645 -0.293,-0.83zm-6.037,12.432l0.846,7.534l-7.092,-1.754l-5.293,-14.923l11.539,9.143zm-20.42,-29.025l-14.417,19.522l-8.974,-41.291l23.391,21.769zm-1.888,36.69l12.33,-0.399l-27.047,14.604l-11.241,-0.959l25.958,-13.246zm4.357,18.981l-2.285,-2.56l4.174,-2.789l-1.889,5.349zm7.406,-38.812l7.301,-4.855l6.533,4.514l-13.834,0.341z"/>
  </g>
 </g>
</svg>